<svg id="Layer_1" data-name="Layer 1" xmlns="http://www.w3.org/2000/svg" viewBox="0 0 310 310"><defs><style>.cls-1{fill:#fff}</style></defs><title>headphone</title><path class="cls-1" d="M154.41 71.36a107.92 107.92 0 0 1 107.93 107.93c0 1.66-.05 3.31-.13 5v37.38h17.95v-37.43H280c.06-1.64.13-3.29.13-5a125.74 125.74 0 0 0-251.49 0c0 1.66.06 3.31.13 5h-.13v37.38h17.98v-37.38c-.07-1.64-.13-3.29-.13-5A107.92 107.92 0 0 1 154.41 71.36z"/><path class="cls-1" d="M218.85 190.18v49.49a18.29 18.29 0 1 0 36.58 0v-49.49a18.29 18.29 0 1 0-36.58 0zm-165.08 0v49.49a18.29 18.29 0 1 0 36.58 0v-49.49a18.29 18.29 0 1 0-36.58 0z"/></svg>