<svg id="Layer_1" data-name="Layer 1" xmlns="http://www.w3.org/2000/svg" viewBox="0 0 279.38 249.24"><defs><style>.cls-1{fill:#fff}</style></defs><title>headphone</title><path class="cls-1" d="M38.41 182.87v68.45a25.3 25.3 0 1 0 50.6 0v-68.45a25.3 25.3 0 1 0-50.6 0z" transform="translate(-15.31 -30.38)"/><path class="cls-1" d="M155 50.18a119.89 119.89 0 0 1 119.89 119.89c0 1.84-.06 3.68-.14 5.5v41.52h19.94v-41.52h-.14c.07-1.83.14-3.66.14-5.5a139.69 139.69 0 0 0-279.38 0c0 1.84.07 3.67.14 5.5h-.14v41.52h19.94v-41.52c-.08-1.82-.14-3.66-.14-5.5A119.89 119.89 0 0 1 155 50.18z" transform="translate(-15.31 -30.38)"/><path class="cls-1" d="M219.59 183.27v70.35a26 26 0 1 0 52 0v-70.35a26 26 0 1 0-52 0z" transform="translate(-15.31 -30.38)"/></svg>