<svg id="Layer_1" data-name="Layer 1" xmlns="http://www.w3.org/2000/svg" viewBox="0 0 232.62 234.62"><defs><style>.cls-1{fill:#fff;stroke:#fff;stroke-width:5px}</style></defs><title>rocket</title><path class="cls-1" d="M262.83 47.17a3.33 3.33 0 0 0-2.56-1c-43.27 2.61-91.13 22.69-127.48 59.34a157.65 157.65 0 0 0-23.59-2.21c-12.7 0-23 2.89-31.91 10.27s-16.4 18.71-25 35.45a3.34 3.34 0 0 0 3 4.85 3.38 3.38 0 0 0 .82-.1c7.95-2 14.42-4.48 20.29-6.35s11.1-3.16 16.8-3.16a40.22 40.22 0 0 1 9 1.06q-2.1 3.68-4.1 7.48a3.33 3.33 0 0 0 .6 3.91l54.59 54.59a3.34 3.34 0 0 0 3.91.6q3.76-2 7.38-4.09a40.13 40.13 0 0 1 1 8.81c0 5.71-1.29 10.93-3.16 16.81s-4.31 12.34-6.35 20.29a3.34 3.34 0 0 0 4.75 3.8c16.73-8.55 28.09-16 35.45-25s10.31-19.21 10.27-31.91a157.41 157.41 0 0 0-2.17-23.35C241.1 141 261.22 93 263.8 49.73a3.35 3.35 0 0 0-.97-2.56zM93.24 137.59c-6.74 0-12.73 1.54-18.83 3.48-4 1.28-8.06 2.73-12.5 4.12 6.88-12.58 13.08-21.08 19.63-26.45 7.68-6.28 15.86-8.74 27.66-8.74a134 134 0 0 1 18 1.44 197.66 197.66 0 0 0-21.3 27.92 48 48 0 0 0-12.66-1.77zm97.89 90.73c-5.37 6.55-13.87 12.75-26.45 19.63 1.39-4.44 2.84-8.5 4.12-12.5 1.94-6.1 3.48-12.09 3.48-18.83a48 48 0 0 0-1.71-12.43 197.76 197.76 0 0 0 27.9-21.26 133.16 133.16 0 0 1 1.41 17.72c-.05 11.8-2.48 19.99-8.76 27.67zm-25.23-29.08l-.31.08a3.3 3.3 0 0 0-1.59 1.08q-3.81 2.3-7.75 4.44l-51.1-51.1q2.36-4.37 4.92-8.55a3.4 3.4 0 0 0 .2-.33c34.38-56.08 94-87.35 146.59-91.73-4.35 52.39-35.36 111.67-90.96 146.11zm31.37-63.88a22.56 22.56 0 0 0 16-6.63l-2.36-2.36 2.36 2.36a22.64 22.64 0 1 0-16 6.63zM186 101.44a16 16 0 1 1-4.68 11.26 15.89 15.89 0 0 1 4.68-11.26zm-62.18 47.26a3.34 3.34 0 1 0 2.36 1 3.36 3.36 0 0 0-2.36-1zm34.07 40.91a3.34 3.34 0 1 0-2.36-1 3.36 3.36 0 0 0 2.36 1zm-19.44-18.06a3.34 3.34 0 1 0-1-2.36 3.36 3.36 0 0 0 1 2.36zm-84.08 67l46.18-46.18a3.34 3.34 0 1 0-4.72-4.72l-46.18 46.19a3.34 3.34 0 0 0 4.72 4.72zm58.07-39a3.34 3.34 0 0 0-4.72 0l-70.55 70.56a3.34 3.34 0 0 0 4.72 4.72l70.56-70.56a3.33 3.33 0 0 0 0-4.72zm7.18 11.9l-19.12 19.12a3.34 3.34 0 1 0 4.72 4.72l19.12-19.12a3.34 3.34 0 1 0-4.72-4.72z" transform="translate(-33.69 -43.69)"/></svg>