<svg id="Layer_1" data-name="Layer 1" xmlns="http://www.w3.org/2000/svg" viewBox="0 0 310 310"><defs><style>.cls-1{fill:#fff;}</style></defs><title>gamepad</title><g id="_Group_" data-name="&lt;Group&gt;"><g id="_Group_2" data-name="&lt;Group&gt;"><g id="_Group_3" data-name="&lt;Group&gt;"><rect id="_Path_" data-name="&lt;Path&gt;" class="cls-1" x="145.03" y="186.39" width="21.47" height="11"/></g><g id="_Group_4" data-name="&lt;Group&gt;"><path id="_Path_2" data-name="&lt;Path&gt;" class="cls-1" d="M42.08,254.19A35.56,35.56,0,0,1,7,212.87l13.4-80.43A46.19,46.19,0,0,1,66.1,93.72H243.9a46.19,46.19,0,0,1,45.71,38.72L303,212.87a35.68,35.68,0,0,1-24.09,39.58,35.3,35.3,0,0,1-41.36-15.6L212.44,194.7l9.45-5.63L247,231.22A24.35,24.35,0,0,0,275.54,242a24.61,24.61,0,0,0,16.62-27.31l-13.4-80.43a35.23,35.23,0,0,0-34.86-29.53H66.1a35.23,35.23,0,0,0-34.86,29.53l-13.4,80.43A24.61,24.61,0,0,0,34.46,242,24.35,24.35,0,0,0,63,231.22l25.11-42.15,9.45,5.63L72.45,236.85A35.28,35.28,0,0,1,42.08,254.19Z"/></g><g id="_Group_5" data-name="&lt;Group&gt;"><g id="_Group_6" data-name="&lt;Group&gt;"><path id="_Compound_Path_" data-name="&lt;Compound Path&gt;" class="cls-1" d="M117.7,217.39a34.17,34.17,0,1,1,34.17-34.17A34.21,34.21,0,0,1,117.7,217.39Zm0-57.33a23.17,23.17,0,1,0,23.17,23.17A23.19,23.19,0,0,0,117.7,160.05Z"/></g><g id="_Group_7" data-name="&lt;Group&gt;"><path id="_Compound_Path_2" data-name="&lt;Compound Path&gt;" class="cls-1" d="M192.3,217.39a34.17,34.17,0,1,1,34.17-34.17A34.21,34.21,0,0,1,192.3,217.39Zm0-57.33a23.17,23.17,0,1,0,23.17,23.17A23.19,23.19,0,0,0,192.3,160.05Z"/></g></g><g id="_Group_8" data-name="&lt;Group&gt;"><g id="_Group_9" data-name="&lt;Group&gt;"><rect id="_Path_3" data-name="&lt;Path&gt;" class="cls-1" x="57.68" y="124.32" width="15" height="42.38"/></g><g id="_Group_10" data-name="&lt;Group&gt;"><rect id="_Path_4" data-name="&lt;Path&gt;" class="cls-1" x="43.99" y="138.01" width="42.38" height="15"/></g></g><g id="_Group_11" data-name="&lt;Group&gt;"><g id="_Group_12" data-name="&lt;Group&gt;"><g id="_Group_13" data-name="&lt;Group&gt;"><circle class="cls-1" cx="243.5" cy="130.51" r="8.75"/></g><g id="_Group_14" data-name="&lt;Group&gt;"><circle class="cls-1" cx="243.5" cy="160.51" r="8.75"/></g></g><g id="_Group_15" data-name="&lt;Group&gt;"><g id="_Group_16" data-name="&lt;Group&gt;"><circle class="cls-1" cx="258.5" cy="145.51" r="8.75"/></g><g id="_Group_17" data-name="&lt;Group&gt;"><circle class="cls-1" cx="228.5" cy="145.51" r="8.75"/></g></g></g><g id="_Group_18" data-name="&lt;Group&gt;"><g id="_Group_19" data-name="&lt;Group&gt;"><path id="_Path_5" data-name="&lt;Path&gt;" class="cls-1" d="M117.63,99.22h-11V87.05A1.67,1.67,0,0,0,105,85.39H75a1.67,1.67,0,0,0-1.67,1.67V99.22h-11V87.05A12.68,12.68,0,0,1,75,74.39h30a12.68,12.68,0,0,1,12.67,12.67Z"/></g><g id="_Group_20" data-name="&lt;Group&gt;"><path id="_Path_6" data-name="&lt;Path&gt;" class="cls-1" d="M247.71,99.22h-11V87.05A1.67,1.67,0,0,0,235,85.39H205a1.67,1.67,0,0,0-1.67,1.67V99.22h-11V87.05A12.68,12.68,0,0,1,205,74.39h30a12.68,12.68,0,0,1,12.67,12.67Z"/></g></g><g id="_Group_21" data-name="&lt;Group&gt;"><path id="_Path_7" data-name="&lt;Path&gt;" class="cls-1" d="M159.47,98.47h-11V90.13a34.33,34.33,0,0,1,65.95-13.36l-10.13,4.29a23.33,23.33,0,0,0-44.82,9.08Z"/></g><g id="_Group_22" data-name="&lt;Group&gt;"><rect id="_Path_8" data-name="&lt;Path&gt;" class="cls-1" x="139.53" y="83.2" width="28.87" height="20.77"/></g></g><g id="_Group_23" data-name="&lt;Group&gt;"><g id="_Group_24" data-name="&lt;Group&gt;"><rect id="_Path_9" data-name="&lt;Path&gt;" class="cls-1" x="128.75" y="122.97" width="12" height="11"/></g><g id="_Group_25" data-name="&lt;Group&gt;"><rect id="_Path_10" data-name="&lt;Path&gt;" class="cls-1" x="169.25" y="122.97" width="12" height="11"/></g><g id="_Group_26" data-name="&lt;Group&gt;"><rect id="_Path_11" data-name="&lt;Path&gt;" class="cls-1" x="149.77" y="143.05" width="12" height="11"/></g></g></g></svg>