<svg id="Layer_1" data-name="Layer 1" xmlns="http://www.w3.org/2000/svg" viewBox="0 0 310 310"><defs><style>.cls-1{fill:#fff;}</style></defs><title>headphone</title><path class="cls-1" d="M154.41,71.36A107.92,107.92,0,0,1,262.34,179.29c0,1.66-.05,3.31-.13,5v37.38h17.95V184.24H280c.06-1.64.13-3.29.13-5a125.74,125.74,0,0,0-251.49,0c0,1.66.06,3.31.13,5h-.13v37.38H46.62V184.24c-.07-1.64-.13-3.29-.13-5A107.92,107.92,0,0,1,154.41,71.36Z"/><path class="cls-1" d="M218.85,190.18v49.49a18.29,18.29,0,1,0,36.58,0V190.18a18.29,18.29,0,1,0-36.58,0Z"/><path class="cls-1" d="M53.77,190.18v49.49a18.29,18.29,0,1,0,36.58,0V190.18a18.29,18.29,0,1,0-36.58,0Z"/></svg>